# xmcd
#
# Track frame offsets:
#	150
#	26224
#	49549
#	73868
#	94492
#	122755
#	138685
#	167432
#	186683
#	215191
#	244251
#	270297
#
# Disc length: 4133 seconds
#
# Revision: 1
# Processed by: cddbd v1.4PL0 Copyright (c) Steve Scherf et al.
# Submitted via: CDmax 1.9
#
DISCID=bf10230c
DTITLE=Jay Munly - Jimmy Carter Sydrome
DYEAR=2002
DGENRE=Alt. Country
TTITLE0=My Darling Sambo
TTITLE1=Circle Round My Bedside
TTITLE2=Cooney vs. Munly
TTITLE3=Haggie Hennies Almost Dirty Dress
TTITLE4=Censer From The Footlights
TTITLE5=Spill The Wine
TTITLE6=The Denver Boot
TTITLE7=Weegee_ The Univited_ Blues #2
TTITLE8=Dar He Drone
TTITLE9=Cattle, I Will Hang
TTITLE10=Chan Down Cap'n
TTITLE11=The Fabulous History of the Churchill Falls Barrel Races
EXTD=
EXTT0=
EXTT1=
EXTT2=
EXTT3=
EXTT4=
EXTT5=
EXTT6=
EXTT7=
EXTT8=
EXTT9=
EXTT10=
EXTT11=
PLAYORDER=
